<svg id="Layer_1" data-name="Layer 1" xmlns="http://www.w3.org/2000/svg" viewBox="0 0 446.78 136.74"><defs><style>.cls-1{fill:#f15840;}.cls-2{fill:#f1efee;}.cls-3{fill:#f1efef;}.cls-4{fill:#f1f0f0;}.cls-5{fill:#010101;}</style></defs><title>logo</title><path class="cls-1" d="M15.25,87.74c0-16.89-.06-33.78,0-50.67.05-11.32,5.93-17.29,17.21-17.32q38.56-.12,77.13,0c65-.07,58.2,136.67,1,136.47-26.2.36-52.42.16-78.63,0-10.81-.05-16.64-6.15-16.69-17.09C15.18,122,15.25,104.87,15.25,87.74Z" transform="translate(-15.22 -19.67)"/><path class="cls-2" d="M56.52,67.77c-3.51,0-7.07.41-10.52,0-5.91-.8-9.73-4.19-9.62-10.49.1-5.86,3.56-9.55,9.27-9.93a172.84,172.84,0,0,1,22.53-.06c5.7.37,9.11,4.12,9.28,10S74,66.6,68.52,67.53c-3.9.66-8,.15-12,.16Z" transform="translate(-15.22 -19.67)"/><path class="cls-3" d="M67.64,130.56c-6.78,0-13.56.12-20.34,0-6.5-.1-10.46-3.35-10.85-10-.34-5.88,3.81-10.2,10.5-10.35,13.56-.31,27.13-.27,40.69-.15,6.44.06,10.48,3.46,10.93,10,.41,5.87-4.32,10-11.33,10.38-.51,0-1,0-1.51,0Q76.69,130.55,67.64,130.56Z" transform="translate(-15.22 -19.67)"/><path class="cls-4" d="M77.09,99c-9.56,0-19.13.09-28.7.06-8.08,0-12.38-3.43-12.57-9.79s4-10.23,12-10.29q29.46-.19,58.92-.16c7.74,0,12.4,4,12.34,10.16s-4.65,9.85-12.56,9.92C96.73,99,86.91,99,77.09,99Z" transform="translate(-15.22 -19.67)"/><path class="cls-5" d="M168.74,23.53A83.52,83.52,0,0,1,181,22.61c8.26,0,14.14,1.92,18,5.55s6.28,8.79,6.28,16S203,57.37,198.88,61.47s-11,6.41-19.7,6.41a92.83,92.83,0,0,1-10.44-.53Zm5.75,39.39a35.47,35.47,0,0,0,5.81.34c12.3,0,19-6.88,19-18.91.07-10.51-5.88-17.18-18-17.18a32.79,32.79,0,0,0-6.74.59Z" transform="translate(-15.22 -19.67)"/><path class="cls-5" d="M235.82,46.6H218.5V62.66h19.3v4.82H212.75V22.94h24.06v4.82H218.5V41.84h17.32Z" transform="translate(-15.22 -19.67)"/><path class="cls-5" d="M282.81,47.92c-.33-6.21-.73-13.68-.66-19.23H282c-1.52,5.22-3.37,10.77-5.62,16.92l-7.86,21.61h-4.36L256.9,46c-2.11-6.28-3.9-12-5.15-17.32h-.13c-.14,5.55-.47,13-.86,19.69l-1.19,19.1h-5.49l3.11-44.54h7.33l7.6,21.55c1.86,5.48,3.38,10.37,4.5,15h.2c1.12-4.5,2.71-9.39,4.69-15l7.93-21.55h7.34l2.77,44.54h-5.61Z" transform="translate(-15.22 -19.67)"/><path class="cls-5" d="M305,53.47l-4.62,14h-5.95l15.13-44.54h6.94l15.2,44.54h-6.14l-4.76-14ZM319.56,49,315.2,36.16c-1-2.91-1.66-5.55-2.32-8.13h-.13c-.66,2.64-1.39,5.35-2.25,8.06L306.14,49Z" transform="translate(-15.22 -19.67)"/><path class="cls-5" d="M371.11,65.5A41.38,41.38,0,0,1,357.43,68c-6.74,0-12.29-1.72-16.66-5.88-3.83-3.71-6.21-9.65-6.21-16.59.07-13.29,9.19-23,24.12-23a27.49,27.49,0,0,1,11.11,2.05l-1.39,4.69a23,23,0,0,0-9.85-1.92c-10.84,0-17.91,6.74-17.91,17.91s6.81,18,17.19,18c3.76,0,6.34-.53,7.66-1.19V48.72h-9.05V44.09h14.67Z" transform="translate(-15.22 -19.67)"/><path class="cls-5" d="M418,44.75c0,15.33-9.32,23.46-20.69,23.46-11.76,0-20-9.12-20-22.6,0-14.14,8.79-23.4,20.68-23.4C410.1,22.21,418,31.53,418,44.75Zm-34.57.73c0,9.51,5.16,18,14.21,18S411.89,55.13,411.89,45c0-8.85-4.63-18.11-14.21-18.11S383.4,35.7,383.4,45.48Z" transform="translate(-15.22 -19.67)"/><path class="cls-5" d="M459.34,65.5A41.33,41.33,0,0,1,445.66,68c-6.74,0-12.29-1.72-16.65-5.88-3.84-3.71-6.22-9.65-6.22-16.59.07-13.29,9.19-23,24.13-23A27.47,27.47,0,0,1,458,24.53l-1.39,4.69a23,23,0,0,0-9.85-1.92C436,27.3,428.87,34,428.87,45.21s6.81,18,17.19,18c3.77,0,6.34-.53,7.66-1.19V48.72h-9.05V44.09h14.67Z" transform="translate(-15.22 -19.67)"/><path class="cls-1" d="M208,99c-9.57,0-19.14.09-28.7.06-8.09,0-12.38-3.43-12.57-9.79s4-10.23,12-10.29c19.64-.13,251.24-.18,270.88-.16,7.74,0,12.4,4,12.34,10.16s-4.66,9.85-12.56,9.92C439.62,99,217.84,99,208,99Z" transform="translate(-15.22 -19.67)"/><path class="cls-5" d="M170,113h8.71v1.76h-6.62v5.37h6.12v1.73h-6.12v7.32H170Z" transform="translate(-15.22 -19.67)"/><path class="cls-5" d="M187,129.21l-.17-1.46h-.07a4.34,4.34,0,0,1-3.55,1.73,3.31,3.31,0,0,1-3.55-3.34c0-2.81,2.49-4.34,7-4.32v-.24a2.39,2.39,0,0,0-2.64-2.69,5.74,5.74,0,0,0-3,.87l-.48-1.4a7.23,7.23,0,0,1,3.81-1c3.55,0,4.42,2.43,4.42,4.75v4.35a16.71,16.71,0,0,0,.19,2.78Zm-.31-5.92c-2.31-.05-4.92.35-4.92,2.61a1.87,1.87,0,0,0,2,2,2.9,2.9,0,0,0,2.81-2,2.2,2.2,0,0,0,.12-.67Z" transform="translate(-15.22 -19.67)"/><path class="cls-5" d="M200.42,128.78a7.77,7.77,0,0,1-3.34.67c-3.5,0-5.78-2.37-5.78-5.92a5.9,5.9,0,0,1,6.24-6.17,7,7,0,0,1,2.93.6l-.48,1.63a4.91,4.91,0,0,0-2.45-.55c-2.66,0-4.1,2-4.1,4.39,0,2.69,1.72,4.34,4,4.34a6.06,6.06,0,0,0,2.59-.57Z" transform="translate(-15.22 -19.67)"/><path class="cls-5" d="M205.75,114.26v3.34h3v1.6h-3v6.27c0,1.44.41,2.26,1.59,2.26a4.68,4.68,0,0,0,1.22-.15l.1,1.59a5.43,5.43,0,0,1-1.88.28,3,3,0,0,1-2.28-.88,4.33,4.33,0,0,1-.81-3V119.2h-1.8v-1.6h1.8v-2.79Z" transform="translate(-15.22 -19.67)"/><path class="cls-5" d="M219.29,128.78a7.77,7.77,0,0,1-3.34.67c-3.5,0-5.78-2.37-5.78-5.92a5.9,5.9,0,0,1,6.24-6.17,7,7,0,0,1,2.93.6l-.48,1.63a4.88,4.88,0,0,0-2.45-.55c-2.66,0-4.1,2-4.1,4.39,0,2.69,1.72,4.34,4,4.34a6.06,6.06,0,0,0,2.59-.57Z" transform="translate(-15.22 -19.67)"/><path class="cls-5" d="M221.77,112.17h2.11v7.25h.05a3.86,3.86,0,0,1,1.51-1.49,4.34,4.34,0,0,1,2.16-.6c1.56,0,4.05,1,4.05,5v6.91h-2.11v-6.67c0-1.87-.69-3.46-2.69-3.46A3,3,0,0,0,224,121.2a2.54,2.54,0,0,0-.14,1v7h-2.11Z" transform="translate(-15.22 -19.67)"/><path class="cls-5" d="M236.27,123.79a3.71,3.71,0,0,0,4,4,7.63,7.63,0,0,0,3.22-.6l.36,1.51a9.39,9.39,0,0,1-3.87.72c-3.57,0-5.71-2.35-5.71-5.85s2.06-6.27,5.45-6.27c3.79,0,4.8,3.34,4.8,5.48a9,9,0,0,1-.07,1Zm6.19-1.51c0-1.35-.55-3.44-2.93-3.44-2.14,0-3.07,2-3.24,3.44Z" transform="translate(-15.22 -19.67)"/><path class="cls-5" d="M255.4,128.78a7.77,7.77,0,0,1-3.34.67c-3.5,0-5.78-2.37-5.78-5.92a5.9,5.9,0,0,1,6.24-6.17,7,7,0,0,1,2.93.6l-.48,1.63a4.91,4.91,0,0,0-2.45-.55c-2.67,0-4.11,2-4.11,4.39,0,2.69,1.73,4.34,4,4.34a6.06,6.06,0,0,0,2.59-.57Z" transform="translate(-15.22 -19.67)"/><path class="cls-5" d="M260,122.92H260c.29-.4.7-.91,1-1.32l3.41-4H267l-4.48,4.77,5.11,6.84h-2.57l-4-5.57L260,124.85v4.36h-2.09v-17H260Z" transform="translate(-15.22 -19.67)"/><path class="cls-5" d="M274.22,121.39c0-1.49-.05-2.69-.09-3.79H276l.1,2h.05a4.56,4.56,0,0,1,4.13-2.26c2.8,0,4.92,2.38,4.92,5.91,0,4.17-2.55,6.24-5.28,6.24a4.06,4.06,0,0,1-3.58-1.83h-.05V134h-2.09Zm2.09,3.1a4.51,4.51,0,0,0,.1.86,3.25,3.25,0,0,0,3.17,2.47c2.23,0,3.52-1.82,3.52-4.49,0-2.33-1.22-4.32-3.45-4.32a3.38,3.38,0,0,0-3.2,2.62,3.51,3.51,0,0,0-.14.86Z" transform="translate(-15.22 -19.67)"/><path class="cls-5" d="M298.4,123.31c0,4.3-3,6.17-5.79,6.17-3.14,0-5.57-2.31-5.57-6,0-3.89,2.55-6.17,5.76-6.17S298.4,119.76,298.4,123.31Zm-9.22.12c0,2.54,1.46,4.46,3.53,4.46s3.53-1.89,3.53-4.51c0-2-1-4.46-3.48-4.46S289.18,121.22,289.18,123.43Z" transform="translate(-15.22 -19.67)"/><path class="cls-5" d="M301.06,112.17h2.12v17h-2.12Z" transform="translate(-15.22 -19.67)"/><path class="cls-5" d="M309.08,114.33a1.31,1.31,0,0,1-2.61,0,1.29,1.29,0,0,1,1.32-1.32A1.25,1.25,0,0,1,309.08,114.33Zm-2.35,14.88V117.6h2.11v11.61Z" transform="translate(-15.22 -19.67)"/><path class="cls-5" d="M314.89,114.26v3.34h3v1.6h-3v6.27c0,1.44.41,2.26,1.59,2.26a4.68,4.68,0,0,0,1.22-.15l.1,1.59a5.43,5.43,0,0,1-1.88.28,3,3,0,0,1-2.28-.88,4.33,4.33,0,0,1-.81-3V119.2H311v-1.6h1.8v-2.79Z" transform="translate(-15.22 -19.67)"/><path class="cls-5" d="M322.65,114.33a1.31,1.31,0,0,1-2.62,0,1.29,1.29,0,0,1,1.32-1.32A1.26,1.26,0,0,1,322.65,114.33Zm-2.36,14.88V117.6h2.12v11.61Z" transform="translate(-15.22 -19.67)"/><path class="cls-5" d="M334.19,128.78a7.72,7.72,0,0,1-3.33.67c-3.51,0-5.79-2.37-5.79-5.92a5.9,5.9,0,0,1,6.24-6.17,7,7,0,0,1,2.93.6l-.48,1.63a4.85,4.85,0,0,0-2.45-.55c-2.66,0-4.1,2-4.1,4.39,0,2.69,1.73,4.34,4,4.34a6.06,6.06,0,0,0,2.59-.57Z" transform="translate(-15.22 -19.67)"/><path class="cls-5" d="M338.76,122.92h0c.29-.4.7-.91,1-1.32l3.41-4h2.54l-4.49,4.77,5.11,6.84h-2.56l-4-5.57-1.08,1.21v4.36h-2.09v-17h2.09Z" transform="translate(-15.22 -19.67)"/><path class="cls-5" d="M349,117.6l2.54,6.86c.27.77.55,1.68.75,2.38h0c.22-.7.46-1.59.75-2.43l2.3-6.81h2.24l-3.17,8.28c-1.52,4-2.55,6-4,7.27a5.77,5.77,0,0,1-2.59,1.37l-.53-1.78a5.53,5.53,0,0,0,1.85-1,6.39,6.39,0,0,0,1.78-2.35,1.66,1.66,0,0,0,.16-.51,1.71,1.71,0,0,0-.14-.55l-4.3-10.7Zm6.65-5L352.73,116h-1.51l2.11-3.43Z" transform="translate(-15.22 -19.67)"/><path class="cls-5" d="M367.59,128.78a7.77,7.77,0,0,1-3.34.67c-3.5,0-5.78-2.37-5.78-5.92a5.9,5.9,0,0,1,6.24-6.17,7,7,0,0,1,2.93.6l-.48,1.63a4.91,4.91,0,0,0-2.45-.55c-2.67,0-4.11,2-4.11,4.39,0,2.69,1.73,4.34,4,4.34a6.06,6.06,0,0,0,2.59-.57Z" transform="translate(-15.22 -19.67)"/><path class="cls-5" d="M370.06,112.17h2.12v7.25h0a4,4,0,0,1,1.52-1.49,4.31,4.31,0,0,1,2.16-.6c1.56,0,4.05,1,4.05,5v6.91h-2.11v-6.67c0-1.87-.7-3.46-2.69-3.46a3,3,0,0,0-2.83,2.12,2.54,2.54,0,0,0-.14,1v7h-2.12Z" transform="translate(-15.22 -19.67)"/><path class="cls-5" d="M398.51,112.17v14c0,1,0,2.21.1,3h-1.9l-.1-2h0a4.32,4.32,0,0,1-4,2.28c-2.81,0-5-2.38-5-5.91,0-3.86,2.37-6.24,5.21-6.24a3.88,3.88,0,0,1,3.5,1.78h0v-6.94Zm-2.11,10.15a3.77,3.77,0,0,0-.1-.88,3.1,3.1,0,0,0-3.05-2.45c-2.18,0-3.48,1.92-3.48,4.49,0,2.35,1.16,4.29,3.44,4.29a3.16,3.16,0,0,0,3.09-2.52,3.68,3.68,0,0,0,.1-.91Z" transform="translate(-15.22 -19.67)"/><path class="cls-5" d="M404.37,114.33a1.25,1.25,0,0,1-1.34,1.3,1.26,1.26,0,0,1-1.28-1.3,1.29,1.29,0,0,1,1.32-1.32A1.25,1.25,0,0,1,404.37,114.33ZM402,129.21V117.6h2.11v11.61Z" transform="translate(-15.22 -19.67)"/><path class="cls-5" d="M407.35,127.05a5.51,5.51,0,0,0,2.78.84c1.54,0,2.26-.76,2.26-1.72s-.6-1.56-2.16-2.14c-2.09-.74-3.07-1.9-3.07-3.29,0-1.87,1.51-3.41,4-3.41a5.85,5.85,0,0,1,2.86.72l-.53,1.54a4.46,4.46,0,0,0-2.37-.67c-1.25,0-1.95.72-1.95,1.58s.7,1.39,2.21,2c2,.77,3.05,1.78,3.05,3.5,0,2-1.59,3.48-4.35,3.48a6.63,6.63,0,0,1-3.26-.79Z" transform="translate(-15.22 -19.67)"/><path class="cls-5" d="M419.23,122.92h0c.29-.4.7-.91,1-1.32l3.41-4h2.54l-4.48,4.77,5.11,6.84h-2.57l-4-5.57-1.08,1.21v4.36h-2.09v-17h2.09Z" transform="translate(-15.22 -19.67)"/><path class="cls-5" d="M438.22,126.05c0,1.2,0,2.25.1,3.16h-1.88l-.12-1.89h0a4.4,4.4,0,0,1-3.84,2.16c-1.83,0-4-1-4-5.09V117.6h2.11V124c0,2.21.67,3.7,2.59,3.7a3.07,3.07,0,0,0,2.79-1.92,3.14,3.14,0,0,0,.19-1.08V117.6h2.11Z" transform="translate(-15.22 -19.67)"/><path class="cls-5" d="M441.44,127.05a5.51,5.51,0,0,0,2.78.84c1.54,0,2.26-.76,2.26-1.72s-.6-1.56-2.16-2.14c-2.09-.74-3.07-1.9-3.07-3.29,0-1.87,1.51-3.41,4-3.41a5.84,5.84,0,0,1,2.85.72l-.53,1.54a4.46,4.46,0,0,0-2.37-.67c-1.25,0-1.95.72-1.95,1.58s.7,1.39,2.21,2c2,.77,3,1.78,3,3.5,0,2-1.58,3.48-4.34,3.48a6.64,6.64,0,0,1-3.27-.79Z" transform="translate(-15.22 -19.67)"/><path class="cls-5" d="M453.59,114.33a1.31,1.31,0,0,1-2.62,0,1.29,1.29,0,0,1,1.32-1.32A1.26,1.26,0,0,1,453.59,114.33Zm-2.35,14.88V117.6h2.11v11.61Z" transform="translate(-15.22 -19.67)"/><path class="cls-5" d="M461.15,112.58,458.22,116h-1.51l2.11-3.43Zm-4.3,16.63V117.6H459v11.61Z" transform="translate(-15.22 -19.67)"/></svg>